<svg id="Layer_1" data-name="Layer 1" xmlns="http://www.w3.org/2000/svg" viewBox="0 0 1000 247">
    <defs/>
    <path d="M980 167.07h-44.83a7.31 7.31 0 0 1-7.28-6.63L913.66 8a7.3 7.3 0 0 1 7.28-8h71.75a7.3 7.3 0 0 1 7.31 7.93l-12.72 152.44a7.31 7.31 0 0 1-7.28 6.7ZM402.37 115.76c1.94-3.57 1.16-7 1.16-10.2.07-31.5 0-63 .06-94.52C403.6.77 404.16.26 414.53.18h20.07c13.54 0 13.56 0 13.56 13.2v206.6c0 23.85 0 24-23.55 23.81-24.31-.21-18.18 3.39-27.4-18.2-15.31-35.85-30-72-46.65-108.06v8.25c0 35.69-.18 71.38.12 107.07.07 8.06-2 11.83-10.82 11.13a196.5 196.5 0 0 0-25.91-.05c-7.11.36-9.13-2.68-9.09-9.36.22-30.11.09-60.22.09-90.33v-133c0-10.51.49-11 10.71-11 9.76-.06 19.54.32 29.27-.13 6.92-.32 10.63 2.33 13.18 8.76 13.42 34 27.18 67.77 40.84 101.62.72 1.71.84 3.83 3.42 5.27ZM471.47 122.25V11.04c0-10.37.46-11 10.84-10.81 23.93.48 47.86-.95 71.82 1.33 31.44 3 53.41 21.29 58.93 52.1 6.08 33.89 5.85 68.12 3.74 102.41-.95 15.32-1.69 30.55-6.3 45.37-6.58 21.17-21.25 33.25-42.11 38.92-14.76 4-29.81 3.44-44.85 3.46-14.21 0-28.44-.33-42.63.13-7.39.24-9.63-2.41-9.58-9.66.29-37.29.14-74.69.14-112.04Zm48 1.31v69.42c0 4.06-.17 7.93 5.66 8.14 30.93 1.13 38-4.5 41.58-32.41.1-.83.16-1.66.22-2.5A608.85 608.85 0 0 0 567 81c-2.14-29.12-9.75-35.8-38.67-35.44-7.08.09-9 2.68-8.95 9.41.26 22.86.07 45.73.07 68.59ZM138.15 102.73c0-35.07.21-63.52-.14-91.95-.1-8 2.57-11.16 10.6-10.71 8.34.47 16.73.09 25.09.1 13.6 0 13.62 0 13.63 13.28 0 48.52-.06 97 .06 145.55 0 8.88-.62 17.84 1.85 26.6 3.22 11.42 9.12 15.65 22.31 15.66 13 0 19.48-4.36 22.4-15.61a98.82 98.82 0 0 0 2.78-24.86q-.06-74.44 0-148.89c0-11.36.36-11.68 11.81-11.72 8.92 0 17.85.2 26.77-.06 6.34-.18 9.19 2.39 9.17 8.82q-.21 86.57-.32 173.15c0 2.76-.87 5.51-1.07 8.28-2.58 35.56-19.94 50.68-55.3 55.57-16.07 2.22-32.24 1.77-48.13-2.55-24-6.53-37.39-23.2-39.86-47.86-3.34-33.13-.42-66.3-1.65-92.8ZM.17 122.43V11.16C.18.67.61.2 10.91.19q49.36-.06 98.73 0C120.08.2 120.9 1 121.05 11.7c.12 8.37-.11 16.74 0 25.1.09 6.69-2.88 9.4-9.66 9.31-18.13-.27-36.26.17-54.38-.2-7.05-.15-9.2 2.45-9 9.25.42 13.1.35 26.22 0 39.32-.15 6.25 2.33 8.37 8.36 8.29 17-.2 34 .17 51-.15 7.41-.14 10.82 2.31 10.45 10.1-.42 8.9-.22 17.84-.09 26.76.09 6.31-2.56 9-9.06 8.85-17-.27-34 .19-51-.2-7.23-.17-9.8 2.17-9.69 9.57.35 25.38-.1 50.76.26 76.13.11 7.55-2.17 10.57-10 10.12a236.55 236.55 0 0 0-28.43 0c-8 .5-9.89-2.89-9.84-10.24.34-37.09.2-74.18.2-111.28ZM838.56 144.47v83.67c0 18.74-.63 15.42-16.07 15.66-8.09.12-16.2-.4-24.26.13-7.57.51-9.72-3-9.68-9.81.15-22.59 0-45.18 0-67.77 0-36.54-.23-73.08.16-109.61.09-8.57-2.77-11.38-11.12-10.85-9.44.6-19 0-28.44.16-5.47.08-8.28-1.83-8.13-7.77.26-10 .22-20.08 0-30.12-.11-5.75 2.46-8 8-8q64.98.1 129.79 0c5.49 0 8.41 2.21 8.4 7.86v30.12c0 5.67-2.83 8-8.34 7.9-9.48-.13-19 0-28.45 0-11.84 0-11.87 0-11.88 12.26l.02 86.17ZM725.37 122.26c0 37.08-.2 74.16.15 111.24.08 8.07-2.52 10.94-10.52 10.5a239.57 239.57 0 0 0-27.59 0c-7.53.4-10.22-2.13-10.14-9.92.36-32.34.15-64.68.15-97 0-42.09.17-84.19-.15-126.29 0-8 2.4-11.1 10.49-10.64a267.27 267.27 0 0 0 27.59 0c7.56-.36 10.24 2.37 10.18 10.11-.34 37.28-.16 74.64-.16 112Z"/>
    <path d="M931.33 219.49c0-6.13.13-12.26-.05-18.38-.13-4.8 1.72-7.32 7.48-7.23q17.85.26 35.71 0c5.63-.08 7.8 2.39 7.79 7.15v37.5c0 4.73-2.52 6.41-7.57 6.34-11.9-.17-23.81-.2-35.71 0-5.61.09-7.85-2.05-7.7-7 .2-6.12.06-12.25.05-18.38Z"
          fill="#18a04f"/>
    <path d="M980 167.07h-44.83a7.31 7.31 0 0 1-7.28-6.63L913.66 8a7.3 7.3 0 0 1 7.28-8h71.75a7.3 7.3 0 0 1 7.31 7.93l-12.72 152.44a7.31 7.31 0 0 1-7.28 6.7Z"/>
    <path class="cls-2"
          d="M960.28 36.93a16.07 16.07 0 0 0-5.09-1.47c-7.34-1.61-14.67-3.24-22-4.83a1.81 1.81 0 0 1-1.66-2.06v-8.64c0-2.19.2-2.39 2.45-2.39h46.72c1.69 0 2.32.57 2.21 2.26a38.27 38.27 0 0 0 0 5.46c.14 1.85-.65 2.3-2.36 2.28-6.81-.07-13.63 0-20.45 0h-1.22v.27l11 2.39c3.73.81 7.45 1.68 11.19 2.42 1.33.27 2 .81 1.86 2.22a30.91 30.91 0 0 0 0 4.41c.11 1.48-.52 2.09-1.91 2.38-7.81 1.65-15.61 3.35-23.9 5.14h23c2.76 0 2.76 0 2.76 2.81v4.76c0 1-.43 1.41-1.37 1.41h-47.44c-2.52 0-2.54 0-2.55-2.57s.1-5.17 0-7.75c-.09-1.78.6-2.5 2.29-2.84 8.29-1.67 16.56-3.43 24.83-5.17.53-.17 1.08-.34 1.64-.49ZM957.54 63.35c4.36.21 9 .18 13.47 1 6.66 1.17 10.55 4.94 11.85 11.56a19.86 19.86 0 0 1-1.34 12.57 12 12 0 0 1-8.91 7.07 84.11 84.11 0 0 1-30.47.08c-6.5-1.18-10.68-6.47-11-13.09-.17-3.37-.16-6.71 1.16-9.88 2.27-5.49 6.82-7.85 12.39-8.54 4.18-.56 8.41-.65 12.85-.77Zm.47 10.7c-4.47 0-8.7-.16-12.87.78-3 .67-4.06 2.2-4 5.47 0 3 1.28 4.71 4.18 5.19a89 89 0 0 0 19.65.6 23.34 23.34 0 0 0 4.7-.59c2.66-.73 3.88-2.22 4-4.9.11-3.83-1.46-5.53-5.48-6.14a79.36 79.36 0 0 0-10.19-.41ZM957.62 117.85c3.22 0 6.45 0 9.67-.39 4.91-.57 6.73-2.75 6.2-7.65a13.23 13.23 0 0 0-.48-2.23c-.79-2.69-.8-2.68 1.76-3.67 1.7-.65 3.39-1.34 5.07-2 .84-.35 1.5-.29 1.82.67 2.13 6.29 2.58 12.53-.68 18.6a11.58 11.58 0 0 1-7.2 5.57 35.35 35.35 0 0 1-8.68 1.39 118.54 118.54 0 0 1-19.85-.4 18.34 18.34 0 0 1-7.68-2.38 12.28 12.28 0 0 1-5.78-7.87 28.6 28.6 0 0 1 .25-13.94c.4-1.5 1.13-1.85 2.57-1.2 2 .9 4 1.65 6 2.43 1 .38 1.4.89 1 2a14.86 14.86 0 0 0-.54 5.23c.11 2.9 1.18 4.34 4 5 4.19.99 8.38.79 12.55.84Z"/>
</svg>